<?xml version="1.0" encoding="iso-8859-1"?>
<!-- Generator: Adobe Illustrator 19.0.0, SVG Export Plug-In . SVG Version: 6.00 Build 0)  -->
<svg version="1.1" id="Layer_1" xmlns="http://www.w3.org/2000/svg" xmlns:xlink="http://www.w3.org/1999/xlink" x="0px" y="0px"
	 viewBox="0 0 512 512" style="enable-background:new 0 0 512 512;" xml:space="preserve">
<g>
	<rect x="11.229" y="12.667" style="fill:#B3B3B3;" width="489.538" height="83.307"/>
	<path style="fill:#B3B3B3;" d="M393.578,338.731V499.33h-36.396V338.731c0-10.046,8.145-18.19,18.205-18.19
		C385.434,320.541,393.578,328.685,393.578,338.731z"/>
	<path style="fill:#B3B3B3;" d="M313.99,338.731V499.33h-36.396V338.731c0-10.046,8.145-18.19,18.205-18.19
		C305.845,320.541,313.99,328.685,313.99,338.731z"/>
	<path style="fill:#B3B3B3;" d="M234.401,338.731V499.33h-36.396V338.731c0-10.046,8.145-18.19,18.19-18.19
		C226.257,320.541,234.401,328.685,234.401,338.731z"/>
	<path style="fill:#B3B3B3;" d="M154.813,338.731V499.33h-36.396V338.731c0-10.046,8.145-18.19,18.19-18.19
		C146.653,320.541,154.813,328.685,154.813,338.731z"/>
</g>
<path style="fill:#E6E6E6;" d="M431.935,270.177V499.33h-38.357V338.731c0-10.046-8.145-18.19-18.19-18.19
	c-10.061,0-18.205,8.145-18.205,18.19V499.33H313.99V338.731c0-10.046-8.145-18.19-18.19-18.19c-10.061,0-18.205,8.145-18.205,18.19
	V499.33h-43.193V338.731c0-10.046-8.145-18.19-18.205-18.19c-10.046,0-18.19,8.145-18.19,18.19V499.33h-43.193V338.731
	c0-10.046-8.159-18.19-18.205-18.19c-10.046,0-18.19,8.145-18.19,18.19V499.33H80.06V270.177H431.935z"/>
<path style="fill:#B3B3B3;" d="M431.935,235.008v35.168H80.06v-35.168c21.035,9.432,46.591,5.524,63.868-11.753
	c6.782-6.782,11.004-15.181,12.621-23.984h198.896c1.617,8.803,5.824,17.202,12.621,23.984
	C385.344,240.533,410.9,244.44,431.935,235.008z"/>
<path style="fill:#CCCCCC;" d="M448.958,223.256c-5.06,5.06-10.854,8.983-17.023,11.753c-21.035,9.432-46.591,5.524-63.868-11.753
	c-6.797-6.782-11.004-15.181-12.621-23.984H156.55c-1.617,8.803-5.839,17.202-12.621,23.984
	c-17.277,17.277-42.833,21.185-63.868,11.753c-6.168-2.77-11.962-6.692-17.023-11.753c-26.23-26.23-27.817-67.776-4.761-95.848
	c1.482-1.812,3.069-3.563,4.761-5.255c17.966-17.966,41.666-26.679,65.201-26.155h255.534c23.535-0.524,47.235,8.189,65.186,26.155
	c1.692,1.692,3.279,3.443,4.761,5.255C476.775,155.48,475.188,197.026,448.958,223.256z"/>
<path style="fill:#B3B3B3;" d="M453.719,127.408H58.277c1.482-1.812,3.069-3.563,4.761-5.255
	c17.966-17.966,41.666-26.679,65.201-26.155h255.534c23.535-0.524,47.235,8.189,65.186,26.155
	C450.65,123.845,452.237,125.597,453.719,127.408z"/>
<path style="fill:#333333;" d="M500.771,1.438H11.229C5.026,1.438,0,6.465,0,12.667v83.307c0,6.201,5.026,11.229,11.229,11.229
	h51.629c-2.683,2.187-5.274,4.523-7.76,7.007c-15.627,15.626-24.233,36.399-24.233,58.497s8.606,42.871,24.231,58.495
	c4.168,4.168,8.785,7.722,13.733,10.639v257.493c0,6.201,5.026,11.229,11.229,11.229h351.875c6.203,0,11.229-5.027,11.229-11.229
	V241.828c4.908-2.881,9.532-6.421,13.741-10.628c32.255-32.255,32.255-84.736,0-116.992c-2.485-2.485-5.077-4.821-7.76-7.008h51.628
	c6.203,0,11.229-5.027,11.229-11.229V12.667C512,6.464,506.974,1.438,500.771,1.438z M129.644,488.105V338.73
	c0-3.842,3.126-6.968,6.966-6.968c3.842,0,6.968,3.126,6.968,6.968v149.374h-13.934V488.105z M209.234,488.105V338.73
	c0-3.842,3.126-6.968,6.968-6.968c3.84,0,6.966,3.126,6.966,6.968v149.374h-13.934V488.105z M288.826,488.105V338.73
	c0-3.842,3.126-6.968,6.966-6.968c3.84,0,6.966,3.126,6.966,6.968v149.374h-13.932V488.105z M368.416,488.105V338.73
	c0-3.842,3.126-6.968,6.966-6.968c3.842,0,6.968,3.126,6.968,6.968v149.374h-13.934V488.105z M404.809,488.105V338.73
	c0-16.225-13.2-29.425-29.425-29.425c-16.225,0-29.423,13.2-29.423,29.425v149.374h-20.742V338.73
	c0-16.225-13.199-29.425-29.423-29.425c-16.225,0-29.423,13.2-29.423,29.425v149.374H245.63V338.73
	c0-16.225-13.199-29.425-29.423-29.425s-29.425,13.2-29.425,29.425v149.374H166.04V338.73c0-16.225-13.2-29.425-29.425-29.425
	s-29.423,13.2-29.423,29.425v149.374H91.289V281.398h329.418v206.707H404.809z M420.707,258.94H91.289v-8.794
	c3.985,0.713,8.059,1.096,12.194,1.096c18.277,0,35.462-7.117,48.385-20.041c6.051-6.053,10.443-13.143,13.197-20.701h181.869
	c2.755,7.558,7.146,14.648,13.199,20.701c16.446,16.446,39.249,22.739,60.573,18.909V258.94z M441.023,215.321
	c-17.924,17.924-47.088,17.921-65.009,0c-13.464-13.462-13.464-35.369-0.002-48.831c9.896-9.896,25.998-9.893,35.893,0
	c4.384,4.385,11.494,4.384,15.879,0c4.385-4.385,4.385-11.495-0.002-15.88c-18.65-18.652-48.997-18.649-67.65,0
	c-10.383,10.383-15.91,23.809-16.59,37.433H168.456c-0.678-13.624-6.207-27.051-16.59-37.433c-18.653-18.65-48.997-18.65-67.65,0
	c-4.385,4.385-4.385,11.495,0,15.88c4.385,4.384,11.495,4.385,15.879,0c9.896-9.895,25.995-9.895,35.89,0
	c13.464,13.462,13.464,35.369,0,48.833c-8.682,8.682-20.227,13.464-32.505,13.464s-23.821-4.782-32.505-13.464
	c-11.384-11.383-17.653-26.518-17.653-42.616c0-16.097,6.27-31.232,17.654-42.616c15.225-15.226,35.506-23.336,57.005-22.867
	c0.084,0.001,0.166,0.003,0.25,0.003h255.534c0.084,0,0.166-0.001,0.25-0.003c21.541-0.478,41.779,7.641,57.005,22.867
	C464.522,153.587,464.522,191.823,441.023,215.321z M489.543,84.744H22.457V23.895h467.085V84.744z"/>
<g>
</g>
<g>
</g>
<g>
</g>
<g>
</g>
<g>
</g>
<g>
</g>
<g>
</g>
<g>
</g>
<g>
</g>
<g>
</g>
<g>
</g>
<g>
</g>
<g>
</g>
<g>
</g>
<g>
</g>
</svg>
