<?xml version="1.0" encoding="UTF-8"?>
<svg viewBox="0 0 155.63 322.5" xmlns="http://www.w3.org/2000/svg">
 <path d="m30.877 56.152s1.145 0.156 0.988 1.248c-0.156 1.094-1.299 1.215-1.299 1.215-1.303 0-2.264-0.838-2.264-2.021 0-1.846 1.065-2.793 2.39-2.793 2.006 0 3.321 1.146 3.343 2.95 0.021999 2.004-1.415 4.101-3.643 4.124-2.475 0.028999-4.502-1.953-4.531-4.428-0.030001-2.748 2.174-5.004 4.922-5.035 3.055-0.032997 5.559 2.415 5.594 5.469 0.038002 3.393-2.682 6.177-6.075 6.215-3.771 0.042999-6.863-2.979-6.905-6.75-0.046999-4.189 3.311-7.625 7.5-7.674 4.655-0.053001 8.473 3.68 8.525 8.335 0.058998 5.172-4.086 9.413-9.26 9.472-5.748 0.066002-10.46-4.539-10.525-10.288-0.072001-6.386 5.045-11.622 11.432-11.694 7.095-0.082001 12.913 5.606 12.994 12.701 0.09 7.885-6.229 14.35-14.113 14.439-8.76 0.098999-15.943-6.922-16.042-15.683-0.11-9.733 7.69-17.713 17.423-17.824 10.815-0.123 19.684 8.545 19.807 19.36 0.137 12.016-9.494 21.868-21.512 22.005-13.352 0.151-24.299-10.549-24.451-23.9-0.169-14.836 11.721-26.999 26.555-27.168l0.172-5.579c-17.82 0.203-32.104 14.813-31.9 32.635 0.182 16.038 13.332 28.893 29.371 28.71 14.436-0.164 26.004-11.999 25.84-26.434-0.147-12.991-10.8-23.403-23.791-23.256-11.691 0.134-21.062 9.719-20.93 21.411 0.119 10.523 8.747 18.957 19.27 18.838 9.472-0.107 17.062-7.873 16.954-17.344-0.098-8.523-7.087-15.355-15.609-15.258-7.671 0.086998-13.819 6.377-13.731 14.048 0.078001 6.905 5.738 12.438 12.643 12.358 6.215-0.07 11.193-5.165 11.123-11.378-0.063-5.593-4.648-10.075-10.24-10.012-5.033 0.057999-9.066 4.185-9.01 9.217 0.051001 4.53 3.765 8.161 8.295 8.109 4.077-0.045998 7.344-3.39 7.298-7.466-0.042-3.668-3.05-6.609-6.72-6.568-3.301 0.036999-5.948 2.746-5.911 6.048 0.034 2.972 2.47 5.354 5.442 5.319 2.676-0.028999 4.402-2.548 4.375-4.955-0.025002-2.167-1.605-3.543-4.015-3.543-1.591 0-2.87 1.137-2.87 3.354 0 1.422 1.154 2.429 2.718 2.429 0 0 1.374-0.146 1.562-1.459s-1.189-1.499-1.189-1.499z"/>
 <circle cx="30.735" cy="57.315" r="1.286"/>
 <path d="m124.75 56.152s-1.145 0.156-0.988 1.248c0.156 1.094 1.299 1.215 1.299 1.215 1.303 0 2.264-0.838 2.264-2.021 0-1.846-1.065-2.793-2.39-2.793-2.006 0-3.321 1.146-3.343 2.95-0.022003 2.004 1.415 4.101 3.643 4.124 2.475 0.028999 4.502-1.953 4.531-4.428 0.029999-2.748-2.174-5.004-4.922-5.035-3.055-0.032997-5.559 2.415-5.594 5.469-0.038002 3.393 2.682 6.177 6.075 6.215 3.771 0.042999 6.863-2.979 6.905-6.75 0.047012-4.189-3.311-7.625-7.5-7.674-4.655-0.053001-8.473 3.68-8.525 8.335-0.058998 5.172 4.086 9.413 9.26 9.472 5.748 0.066002 10.46-4.539 10.525-10.288 0.071991-6.386-5.045-11.622-11.432-11.694-7.095-0.082001-12.913 5.606-12.994 12.701-0.090004 7.885 6.229 14.35 14.113 14.439 8.76 0.098999 15.943-6.922 16.042-15.683 0.11-9.733-7.69-17.713-17.423-17.824-10.815-0.123-19.684 8.545-19.807 19.36-0.137 12.016 9.494 21.868 21.512 22.005 13.352 0.151 24.299-10.549 24.451-23.9 0.168-14.836-11.723-26.999-26.557-27.168l-0.172-5.579c17.82 0.203 32.104 14.813 31.9 32.635-0.18201 16.038-13.332 28.893-29.371 28.71-14.436-0.164-26.004-11.999-25.84-26.434 0.147-12.991 10.8-23.403 23.791-23.256 11.691 0.134 21.062 9.719 20.93 21.411-0.11899 10.523-8.747 18.957-19.27 18.838-9.472-0.107-17.062-7.873-16.954-17.344 0.098-8.523 7.087-15.355 15.609-15.258 7.671 0.086998 13.819 6.377 13.731 14.048-0.078003 6.905-5.738 12.438-12.643 12.358-6.215-0.07-11.193-5.165-11.123-11.378 0.062996-5.593 4.648-10.075 10.24-10.012 5.033 0.057999 9.066 4.185 9.01 9.217-0.050995 4.53-3.765 8.161-8.295 8.109-4.077-0.045998-7.344-3.39-7.298-7.466 0.042-3.668 3.05-6.609 6.72-6.568 3.301 0.036999 5.948 2.746 5.911 6.048-0.033997 2.972-2.47 5.354-5.442 5.319-2.676-0.028999-4.402-2.548-4.375-4.955 0.025002-2.167 1.605-3.543 4.015-3.543 1.591 0 2.87 1.137 2.87 3.354 0 1.422-1.154 2.429-2.718 2.429 0 0-1.374-0.146-1.562-1.459s1.191-1.499 1.191-1.499z"/>
 <circle cx="124.89" cy="57.315" r="1.286"/>
 <rect x="31.658" y="22.84" width="92.558" height="5.578"/>
 <g stroke="#000" stroke-linecap="round" stroke-linejoin="round" stroke-width=".5">
  <path d="m90.645 71.215h-37.462s2.229-3.338 2.691-6.75h30.146l4.625 6.75z"/>
  <path d="m65.084 71.215h37.462s-2.229-3.338-2.691-6.75h-30.146l-4.625 6.75z"/>
 </g>
 <g stroke="#000" stroke-linecap="round" stroke-linejoin="round" stroke-miterlimit="2.613" stroke-width=".5">
  <path d="m37.772 31.632h40.167v6.167h-20s-12-0.333-20.167-6.167z"/>
  <path d="m117.65 31.632h-40.167v6.167h20s12-0.333 20.167-6.167z"/>
 </g>
 <path d="m103.46 73.078h-51.189s-2.991 5.497-11.146 9.869v231.67l36.479-0.981h0.521l36.479 0.981v-231.67c-8.153-4.372-11.144-9.869-11.144-9.869z"/>
 <g fill="#fff">
  <path d="m81.65 316.45l-7.464-0.034-0.023-230.04s0.667-9 3.667-9h0.151c3 0 3.667 9 3.667 9l2e-3 230.07z"/>
  <path d="m70.847 86.385l2e-3 230.07-6.682-0.034-0.021-230.04s0.59699-9 3.282-9h0.136c2.686 0 3.283 9 3.283 9z"/>
  <path d="m60.046 86.385l2e-3 230.07-5.898-0.034-0.02-230.04s0.527-9 2.898-9h0.12c2.372 0 2.898 9 2.898 9z"/>
  <path d="m49.246 322.5l-5.116-0.034-0.016-230.04s0.457-9 2.514-9h0.104c2.057 0 2.514 9 2.514 9v230.07z"/>
 </g>
 <g fill="#fff">
  <path d="m85.02 86.385l-2e-3 230.07 6.682-0.034 0.02-230.04s-0.597-9-3.282-9h-0.136c-2.686 0-3.282 9-3.282 9z"/>
  <path d="m95.82 86.385l-2e-3 230.07 5.898-0.034 0.02-230.04s-0.527-9-2.898-9h-0.12c-2.371 0-2.898 9-2.898 9z"/>
  <path d="m106.62 322.5l5.116-0.034 0.016-230.04s-0.457-9-2.514-9h-0.104c-2.057 0-2.514 9-2.514 9v230.07z"/>
 </g>
</svg>
