<?xml version="1.0" ?><svg style="enable-background:new 0 0 48 48;" version="1.1" viewBox="0 0 48 48" xml:space="preserve" xmlns="http://www.w3.org/2000/svg" xmlns:xlink="http://www.w3.org/1999/xlink"><g id="Padding__x26__Artboard"/><g id="Icons"><g><path d="M35.06104,21.12476c1.07422,0,1.76855,0.76855,1.76855,1.95752    c0,0.49707,0,1.52686-0.71143,1.92139c0.15771,0.32471,0.15186,0.74561,0.14551,1.18555l-0.00244,0.28223    c0,0.92383-0.41064,1.6377-1.05615,1.93408c0.16162,0.33057,0.15723,0.76025,0.15234,1.20898l-0.00098,0.34912    c0.00537,0.54785-0.19922,1.05908-0.57666,1.44043c-0.14355,0.14502-0.30615,0.26465-0.48242,0.35645    c0.32617,0.46191,0.33936,1.13623,0.34619,1.46826c0.01074,0.53857-0.19385,1.0498-0.57617,1.43945    c-0.38525,0.39258-0.92041,0.61816-1.46826,0.61816l-4.80322-0.00146c-0.01074,0.00098-0.02148,0.00146-0.03223,0.00146h-6.30029    c-0.05469,0-0.11133,0.00391-0.16895,0.0083c-0.07227,0.00488-0.14893,0.00977-0.22803,0.00977    c-0.10547,0-0.21533-0.00928-0.32715-0.04053c-0.19531-0.05566-0.36719-0.16699-0.51904-0.26514l-0.10742-0.06787    c-0.22998-0.1416-0.45312-0.29199-0.67627-0.44287l-0.18164-0.12256c-0.11719-0.07861-0.25537-0.12012-0.40137-0.12012h-0.62695    v-0.7002v-9.05878v-0.82635l0.68945-0.43323c0.33057-0.20752,0.53809-0.56543,0.75781-0.94482l0.99316-1.67432    c0.67773-1.13916,1.35693-2.27832,2.03857-3.41553c0.01904-0.03174,0.04346-0.07227,0.04736-0.08838    c0.00391-0.01465,0.00391-0.06201,0.00342-0.09033l-0.00342-3.68603c-0.00049-0.47656,0.40088-0.85596,0.79395-1.16455    c0.58398-0.45703,1.32031-0.57422,2.02051-0.32129c0.55908,0.20215,1.25684,0.56006,1.40723,1.11621    c0.18457,0.68262,0.36914,1.36523,0.54102,2.05176l0.07275,0.28369c0.11084,0.4292,0.22559,0.87256,0.27246,1.32715    c0.06836,0.65723-0.59961,3.32324-0.99561,4.51709L35.06104,21.12476z" style="fill:white;"/><path d="M12.85498,22.64576c-0.92871,0-1.68457,0.75586-1.68457,1.68457v10.27441    c0,0.92871,0.75586,1.68457,1.68457,1.68457h3.68652c0.36865,0,0.70715-0.12244,0.98486-0.32391v-1.36066V24.33033v-1.35834    c-0.27698-0.203-0.61523-0.32623-0.98486-0.32623H12.85498z M13.20508,31.74585v-0.80322c0-0.19336,0.15674-0.3501,0.3501-0.3501    s0.3501,0.15674,0.3501,0.3501v0.80322c0,0.19336-0.15674,0.3501-0.3501,0.3501S13.20508,31.93921,13.20508,31.74585z     M13.90527,29.79468c0,0.19336-0.15674,0.3501-0.3501,0.3501s-0.3501-0.15674-0.3501-0.3501v-5.04395    c0-0.19336,0.15674-0.3501,0.3501-0.3501s0.3501,0.15674,0.3501,0.3501V29.79468z" style="fill:white;"/></g></g></svg>
