<?xml version="1.0" encoding="UTF-8" standalone="no"?>
<!-- Generator: Adobe Illustrator 16.0.0, SVG Export Plug-In . SVG Version: 6.00 Build 0)  -->

<svg
   xmlns:dc="http://purl.org/dc/elements/1.1/"
   xmlns:cc="http://creativecommons.org/ns#"
   xmlns:rdf="http://www.w3.org/1999/02/22-rdf-syntax-ns#"
   xmlns:svg="http://www.w3.org/2000/svg"
   xmlns="http://www.w3.org/2000/svg"
   xmlns:sodipodi="http://sodipodi.sourceforge.net/DTD/sodipodi-0.dtd"
   xmlns:inkscape="http://www.inkscape.org/namespaces/inkscape"
   version="1.1"
   id="Capa_1"
   x="0px"
   y="0px"
   width="430.117px"
   height="430.117px"
   viewBox="0 0 430.117 430.117"
   style="enable-background:new 0 0 430.117 430.117;"
   xml:space="preserve"
   inkscape:version="0.91 r13725"
   sodipodi:docname="linkedin.svg"><metadata
     id="metadata81"><rdf:RDF><cc:Work
         rdf:about=""><dc:format>image/svg+xml</dc:format><dc:type
           rdf:resource="http://purl.org/dc/dcmitype/StillImage" /></cc:Work></rdf:RDF></metadata><defs
     id="defs79" /><sodipodi:namedview
     pagecolor="#ffffff"
     bordercolor="#666666"
     borderopacity="1"
     objecttolerance="10"
     gridtolerance="10"
     guidetolerance="10"
     inkscape:pageopacity="0"
     inkscape:pageshadow="2"
     inkscape:window-width="1920"
     inkscape:window-height="1029"
     id="namedview77"
     showgrid="false"
     inkscape:zoom="0.54868791"
     inkscape:cx="218.70356"
     inkscape:cy="215.0585"
     inkscape:window-x="0"
     inkscape:window-y="0"
     inkscape:window-maximized="1"
     inkscape:current-layer="Capa_1" /><g
     id="g44"
     style="fill:#ffffff"><path
       id="LinkedIn"
       d="M430.117,261.543V420.56h-92.188V272.193c0-37.271-13.334-62.707-46.703-62.707   c-25.473,0-40.632,17.142-47.301,33.724c-2.432,5.928-3.058,14.179-3.058,22.477V420.56h-92.219c0,0,1.242-251.285,0-277.32h92.21   v39.309c-0.187,0.294-0.43,0.611-0.606,0.896h0.606v-0.896c12.251-18.869,34.13-45.824,83.102-45.824   C384.633,136.724,430.117,176.361,430.117,261.543z M52.183,9.558C20.635,9.558,0,30.251,0,57.463   c0,26.619,20.038,47.94,50.959,47.94h0.616c32.159,0,52.159-21.317,52.159-47.94C103.128,30.251,83.734,9.558,52.183,9.558z    M5.477,420.56h92.184v-277.32H5.477V420.56z"
       style="fill:#ffffff" /></g><g
     id="g47" /><g
     id="g49" /><g
     id="g51" /><g
     id="g53" /><g
     id="g55" /><g
     id="g57" /><g
     id="g59" /><g
     id="g61" /><g
     id="g63" /><g
     id="g65" /><g
     id="g67" /><g
     id="g69" /><g
     id="g71" /><g
     id="g73" /><g
     id="g75" /></svg>