<?xml version="1.0" ?>
<svg viewBox="0 0 128 128" xmlns="http://www.w3.org/2000/svg">
  <circle cx="64" cy="49.64" r="20.55" fill="#33805b" />
  <path fill="#33805b" d="M112.34,47.82a8.26,8.26,0,0,0-1.69-11.73l-3.5-2.54a8.26,8.26,0,0,1-3.38-7.4l.37-4.31a8.26,8.26,0,0,0-7.76-9l-4.32-.24a8.26,8.26,0,0,1-6.84-4.4l-2-3.83A8.26,8.26,0,0,0,71.83,1.07L68.07,3.2a8.26,8.26,0,0,1-8.14,0L56.17,1.07A8.26,8.26,0,0,0,44.79,4.41l-2,3.83a8.26,8.26,0,0,1-6.84,4.4l-4.32.24a8.26,8.26,0,0,0-7.76,9l.37,4.31a8.26,8.26,0,0,1-3.38,7.4l-3.5,2.54a8.26,8.26,0,0,0-1.69,11.73l2.64,3.42a8.26,8.26,0,0,1,1.16,8.05l-1.57,4a8.26,8.26,0,0,0,4.92,10.78l4.07,1.45a8.26,8.26,0,0,1,5.33,6.15L33,85.51,22.61,119.28l16.48-5.16L49.35,128l9.37-30.63a8.26,8.26,0,0,0,10.07.37L78.65,128l10.26-13.88,16.48,5.16L94.75,86.64c.07-.23.13-.45.18-.69l.85-4.24a8.26,8.26,0,0,1,5.33-6.15l4.07-1.45a8.26,8.26,0,0,0,4.92-10.78l-1.57-4a8.26,8.26,0,0,1,1.16-8.05ZM35.45,49.64A28.55,28.55,0,1,1,64,78.19,28.58,28.58,0,0,1,35.45,49.64Z"/>
</svg>
