<?xml version="1.0" encoding="UTF-8" standalone="no"?>
<svg
   xmlns:dc="http://purl.org/dc/elements/1.1/"
   xmlns:cc="http://creativecommons.org/ns#"
   xmlns:rdf="http://www.w3.org/1999/02/22-rdf-syntax-ns#"
   xmlns:svg="http://www.w3.org/2000/svg"
   xmlns="http://www.w3.org/2000/svg"
   xmlns:sodipodi="http://sodipodi.sourceforge.net/DTD/sodipodi-0.dtd"
   xmlns:inkscape="http://www.inkscape.org/namespaces/inkscape"
   version="1.1"
   x="0px"
   y="0px"
   viewBox="0 0 120 120"
   style="enable-background:new 0 0 120 120;"
   xml:space="preserve"
   id="svg2"
   inkscape:version="0.91 r13725"
   sodipodi:docname="stackoverflow.svg"><metadata
     id="metadata14"><rdf:RDF><cc:Work
         rdf:about=""><dc:format>image/svg+xml</dc:format><dc:type
           rdf:resource="http://purl.org/dc/dcmitype/StillImage" /></cc:Work></rdf:RDF></metadata><defs
     id="defs12" /><sodipodi:namedview
     pagecolor="#ffffff"
     bordercolor="#666666"
     borderopacity="1"
     objecttolerance="10"
     gridtolerance="10"
     guidetolerance="10"
     inkscape:pageopacity="0"
     inkscape:pageshadow="2"
     inkscape:window-width="1920"
     inkscape:window-height="1029"
     id="namedview10"
     showgrid="false"
     inkscape:zoom="5.5625733"
     inkscape:cx="54.960784"
     inkscape:cy="57.438651"
     inkscape:window-x="0"
     inkscape:window-y="0"
     inkscape:window-maximized="1"
     inkscape:current-layer="svg2" /><style
     type="text/css"
     id="style4">
	.st0{fill:#BCBBBB;}
	.st1{fill:#F48023;}
</style><polygon
     class="st0"
     points="84.4,70.6 92.1,70.6 92.1,101.5 22.6,101.5 22.6,70.6 30.3,70.6 30.3,93.8 84.4,93.8 "
     id="polygon6"
     style="fill:#ffffff;fill-opacity:1"
     transform="matrix(1.4651047,0,0,1.373662,-26.511366,-19.567562)" /><path
     class="st1"
     d="m 30.334696,74.390913 55.380956,10.85193 2.344168,-10.43983 -55.380956,-10.85193 -2.344168,10.43983 z M 37.660218,49.664999 88.938883,72.055688 93.627218,62.440054 42.348554,39.911998 37.660218,49.664999 Z M 51.871735,26.038014 95.385346,59.967463 102.56436,51.862857 59.050748,17.933407 51.871735,26.038014 Z M 80.001744,0.9 70.918096,7.2188438 104.6155,49.802365 113.69916,43.483521 80.001744,0.9 Z m -50.839133,97.667364 56.553041,0 0,-10.577198 -56.553041,0 0,10.577198 z"
     id="path8"
     style="fill:#ffffff;fill-opacity:1"
     inkscape:connector-curvature="0" /></svg>