<?xml version="1.0" encoding="UTF-8" standalone="no"?>
<svg
   xmlns:dc="http://purl.org/dc/elements/1.1/"
   xmlns:cc="http://creativecommons.org/ns#"
   xmlns:rdf="http://www.w3.org/1999/02/22-rdf-syntax-ns#"
   xmlns:svg="http://www.w3.org/2000/svg"
   xmlns="http://www.w3.org/2000/svg"
   xmlns:sodipodi="http://sodipodi.sourceforge.net/DTD/sodipodi-0.dtd"
   xmlns:inkscape="http://www.inkscape.org/namespaces/inkscape"
   height="512px"
   id="Layer_1"
   style="enable-background:new 0 0 512 512;"
   version="1.1"
   viewBox="0 0 512 512"
   width="512px"
   xml:space="preserve"
   inkscape:version="0.91 r13725"
   sodipodi:docname="iconfinder_icon-person_211874.svg"><metadata
     id="metadata9"><rdf:RDF><cc:Work
         rdf:about=""><dc:format>image/svg+xml</dc:format><dc:type
           rdf:resource="http://purl.org/dc/dcmitype/StillImage" /></cc:Work></rdf:RDF></metadata><defs
     id="defs7" /><sodipodi:namedview
     pagecolor="#ffffff"
     bordercolor="#666666"
     borderopacity="1"
     objecttolerance="10"
     gridtolerance="10"
     guidetolerance="10"
     inkscape:pageopacity="0"
     inkscape:pageshadow="2"
     inkscape:window-width="1920"
     inkscape:window-height="1027"
     id="namedview5"
     showgrid="false"
     inkscape:zoom="1.3037281"
     inkscape:cx="151.2396"
     inkscape:cy="292.63071"
     inkscape:window-x="0"
     inkscape:window-y="0"
     inkscape:window-maximized="1"
     inkscape:current-layer="Layer_1" /><path
     d="m 507.06139,507.06139 c 0,0 0,-34.57367 -2.88114,-52.64628 -2.35729,-14.27473 -22.13239,-33.1331 -106.20928,-64.03986 -82.76728,-30.38294 -77.6598,-15.58435 -77.6598,-71.50466 0,-36.27617 18.46548,-15.19146 30.25196,-84.07688 4.58363,-27.10891 8.25054,-9.03631 18.20356,-52.51532 5.23844,-22.7872 -3.53595,-24.48969 -2.48825,-35.35945 1.04768,-10.86974 2.09537,-20.56086 4.05979,-42.82421 2.35729,-27.501782 -23.18008,-99.9231547 -114.72174,-99.9231547 -91.54167,0 -117.07904,72.4213727 -114.59078,100.0541247 1.96441,22.13238 3.0121,31.95446 4.05978,42.8242 1.04769,10.86976 -7.72669,12.57225 -2.48826,35.35945 9.95304,43.34805 13.61994,25.27545 18.20357,52.51532 11.78649,68.88543 30.25197,47.80071 30.25197,84.07688 0,56.05127 5.10747,41.25268 -77.65981,71.50466 C 29.316067,421.28201 9.410011,440.27134 7.1836758,454.54607 4.1715753,472.48772 4.1715753,507.06139 4.1715753,507.06139 l 251.4449147,0 251.4449,0 z"
     id="path3"
     style="fill:#ffffff"
     inkscape:connector-curvature="0" /></svg>