<?xml version="1.0" encoding="UTF-8"?><svg xmlns="http://www.w3.org/2000/svg" xmlns:xlink="http://www.w3.org/1999/xlink" fill-opacity="1" color-rendering="auto" color-interpolation="auto" text-rendering="auto" stroke="black" stroke-linecap="square" width="606" stroke-miterlimit="10" shape-rendering="auto" stroke-opacity="1" fill="black" stroke-dasharray="none" font-weight="normal" stroke-width="1" height="539" font-family="'Dialog'" font-style="normal" stroke-linejoin="miter" font-size="12px" stroke-dashoffset="0" image-rendering="auto">
  <!--Generated by ySVG 2.5-->
  <defs id="genericDefs"/>
  <g>
    <defs id="defs1">
      <clipPath clipPathUnits="userSpaceOnUse" id="clipPath1">
        <path d="M0 0 L606 0 L606 539 L0 539 L0 0 Z"/>
      </clipPath>
      <clipPath clipPathUnits="userSpaceOnUse" id="clipPath2">
        <path d="M464 243 L1070 243 L1070 782 L464 782 L464 243 Z"/>
      </clipPath>
    </defs>
    <g fill="white" text-rendering="geometricPrecision" shape-rendering="geometricPrecision" transform="translate(-464,-243)" stroke="white">
      <rect x="464" width="606" height="539" y="243" clip-path="url(#clipPath2)" stroke="none"/>
    </g>
    <g text-rendering="geometricPrecision" stroke-miterlimit="1.45" stroke-dasharray="6,2" shape-rendering="geometricPrecision" transform="matrix(1,0,0,1,-464,-243)" stroke-linecap="butt">
      <rect fill="none" x="576" width="175" height="175" y="247" clip-path="url(#clipPath2)"/>
      <rect fill="none" x="472" width="175" height="175" y="285" clip-path="url(#clipPath2)"/>
      <circle clip-path="url(#clipPath2)" fill="none" r="2.84" stroke-dasharray="none" cx="748.16" cy="249.84" stroke="white"/>
      <circle clip-path="url(#clipPath2)" fill="none" r="2.84" stroke-dasharray="none" cx="644.16" cy="287" stroke="white"/>
      <circle clip-path="url(#clipPath2)" fill="none" r="2.84" stroke-dasharray="none" cx="578.84" cy="420" stroke="white"/>
      <circle clip-path="url(#clipPath2)" fill="none" r="2.84" stroke-dasharray="none" cx="474.84" cy="457.16" stroke="white"/>
      <circle stroke-linecap="square" clip-path="url(#clipPath2)" r="8" stroke-dasharray="none" cx="611.6643" cy="276.16" stroke="none" stroke-miterlimit="10"/>
      <circle fill="none" stroke-dasharray="none" r="8" clip-path="url(#clipPath2)" cx="611.6643" cy="276.16"/>
    </g>
    <g fill="green" text-rendering="geometricPrecision" shape-rendering="geometricPrecision" transform="matrix(1,0,0,1,-464,-243)" stroke="green">
      <circle r="8" clip-path="url(#clipPath2)" cx="698.3286" cy="353.431" stroke="none"/>
    </g>
    <g text-rendering="geometricPrecision" stroke-miterlimit="1.45" stroke-width="2" shape-rendering="geometricPrecision" transform="matrix(1,0,0,1,-464,-243)" stroke-linecap="butt">
      <circle fill="none" r="8" clip-path="url(#clipPath2)" cx="698.3286" cy="353.431"/>
      <circle stroke-linecap="square" clip-path="url(#clipPath2)" r="8" cx="530.6573" cy="356.431" stroke="none" stroke-width="1" stroke-miterlimit="10"/>
      <circle fill="none" stroke-width="1" r="8" clip-path="url(#clipPath2)" cx="530.6573" cy="356.431"/>
      <circle stroke-linecap="square" clip-path="url(#clipPath2)" r="8" cx="530.6573" cy="409.16" stroke="none" stroke-width="1" stroke-miterlimit="10"/>
      <circle fill="none" stroke-width="1" r="8" clip-path="url(#clipPath2)" cx="530.6573" cy="409.16"/>
      <circle stroke-linecap="square" clip-path="url(#clipPath2)" r="8" cx="644.16" cy="342.7184" stroke="none" stroke-width="1" stroke-miterlimit="10"/>
      <circle fill="none" stroke-width="1" r="8" clip-path="url(#clipPath2)" cx="644.16" cy="342.7184"/>
      <circle stroke-linecap="square" clip-path="url(#clipPath2)" r="8" cx="606.3286" cy="439.8621" stroke="none" stroke-width="1" stroke-miterlimit="10"/>
      <circle fill="none" stroke-width="1" r="8" clip-path="url(#clipPath2)" cx="606.3286" cy="439.8621"/>
      <rect x="892.3427" y="244" clip-path="url(#clipPath2)" fill="none" width="175" stroke-dasharray="6,2" height="175" stroke-width="1"/>
      <rect x="788.3427" y="282" clip-path="url(#clipPath2)" fill="none" width="175" stroke-dasharray="6,2" height="175" stroke-width="1"/>
      <circle clip-path="url(#clipPath2)" fill="none" r="2.84" cx="1064.5027" cy="246.84" stroke="white" stroke-width="1"/>
      <circle clip-path="url(#clipPath2)" fill="none" r="2.84" cx="960.5027" cy="284" stroke="white" stroke-width="1"/>
      <circle clip-path="url(#clipPath2)" fill="none" r="2.84" cx="895.1827" cy="417" stroke="white" stroke-width="1"/>
      <circle clip-path="url(#clipPath2)" fill="none" r="2.84" cx="791.1827" cy="454.16" stroke="white" stroke-width="1"/>
      <circle stroke-linecap="square" clip-path="url(#clipPath2)" r="8" cx="985.007" cy="262.16" stroke="none" stroke-width="1" stroke-miterlimit="10"/>
      <circle fill="none" stroke-width="1" r="8" clip-path="url(#clipPath2)" cx="985.007" cy="262.16"/>
      <circle stroke-linecap="square" clip-path="url(#clipPath2)" r="8" cx="1026.6714" cy="387.431" stroke="none" stroke-width="1" stroke-miterlimit="10"/>
      <circle fill="none" stroke-width="1" r="8" clip-path="url(#clipPath2)" cx="1026.6714" cy="387.431"/>
    </g>
    <g fill="green" text-rendering="geometricPrecision" shape-rendering="geometricPrecision" transform="matrix(1,0,0,1,-464,-243)" stroke="green">
      <circle r="8" clip-path="url(#clipPath2)" cx="847" cy="353.431" stroke="none"/>
    </g>
    <g text-rendering="geometricPrecision" stroke-miterlimit="1.45" stroke-width="2" shape-rendering="geometricPrecision" transform="matrix(1,0,0,1,-464,-243)" stroke-linecap="butt">
      <circle fill="none" r="8" clip-path="url(#clipPath2)" cx="847" cy="353.431"/>
      <circle stroke-linecap="square" clip-path="url(#clipPath2)" r="8" cx="832.0227" cy="428.16" stroke="none" stroke-width="1" stroke-miterlimit="10"/>
      <circle fill="none" stroke-width="1" r="8" clip-path="url(#clipPath2)" cx="832.0227" cy="428.16"/>
      <circle stroke-linecap="square" clip-path="url(#clipPath2)" r="8" cx="980.6714" cy="417" stroke="none" stroke-width="1" stroke-miterlimit="10"/>
      <circle fill="none" stroke-width="1" r="8" clip-path="url(#clipPath2)" cx="980.6714" cy="417"/>
      <circle stroke-linecap="square" clip-path="url(#clipPath2)" r="8" cx="922.6714" cy="436.8621" stroke="none" stroke-width="1" stroke-miterlimit="10"/>
      <circle fill="none" stroke-width="1" r="8" clip-path="url(#clipPath2)" cx="922.6714" cy="436.8621"/>
      <rect x="570.6643" y="523" clip-path="url(#clipPath2)" fill="none" width="175" stroke-dasharray="6,2" height="175" stroke-width="1"/>
      <rect x="466.6643" y="561" clip-path="url(#clipPath2)" fill="none" width="175" stroke-dasharray="6,2" height="175" stroke-width="1"/>
      <circle clip-path="url(#clipPath2)" fill="none" r="2.84" cx="742.8243" cy="525.84" stroke="white" stroke-width="1"/>
      <circle clip-path="url(#clipPath2)" fill="none" r="2.84" cx="638.8243" cy="563" stroke="white" stroke-width="1"/>
      <circle clip-path="url(#clipPath2)" fill="none" r="2.84" cx="573.5043" cy="696" stroke="white" stroke-width="1"/>
      <circle clip-path="url(#clipPath2)" fill="none" r="2.84" cx="469.5043" cy="733.16" stroke="white" stroke-width="1"/>
      <circle stroke-linecap="square" clip-path="url(#clipPath2)" r="8" cx="649.6643" cy="539.8592" stroke="none" stroke-width="1" stroke-miterlimit="10"/>
      <circle fill="none" stroke-width="1" r="8" clip-path="url(#clipPath2)" cx="649.6643" cy="539.8592"/>
      <circle stroke-linecap="square" clip-path="url(#clipPath2)" r="8" cx="709.3286" cy="619.7184" stroke="none" stroke-width="1" stroke-miterlimit="10"/>
      <circle fill="none" r="8" clip-path="url(#clipPath2)" cx="709.3286" cy="619.7184"/>
      <circle stroke-linecap="square" clip-path="url(#clipPath2)" r="8" cx="525.3216" cy="582.431" stroke="none" stroke-width="1" stroke-miterlimit="10"/>
      <circle fill="none" stroke-width="1" r="8" clip-path="url(#clipPath2)" cx="525.3216" cy="582.431"/>
      <circle stroke-linecap="square" clip-path="url(#clipPath2)" r="8" cx="501.3216" cy="663.431" stroke="none" stroke-width="1" stroke-miterlimit="10"/>
      <circle fill="none" stroke-width="1" r="8" clip-path="url(#clipPath2)" cx="501.3216" cy="663.431"/>
      <circle stroke-linecap="square" clip-path="url(#clipPath2)" r="8" cx="663.3286" cy="676.7184" stroke="none" stroke-width="1" stroke-miterlimit="10"/>
      <circle fill="none" stroke-width="1" r="8" clip-path="url(#clipPath2)" cx="663.3286" cy="676.7184"/>
      <circle stroke-linecap="square" clip-path="url(#clipPath2)" r="8" cx="578.6643" cy="715.8621" stroke="none" stroke-width="1" stroke-miterlimit="10"/>
      <circle fill="none" stroke-width="1" r="8" clip-path="url(#clipPath2)" cx="578.6643" cy="715.8621"/>
      <rect x="887.007" y="520" clip-path="url(#clipPath2)" fill="none" width="175" stroke-dasharray="6,2" height="175" stroke-width="1"/>
      <rect x="783.007" y="558" clip-path="url(#clipPath2)" fill="none" width="175" stroke-dasharray="6,2" height="175" stroke-width="1"/>
      <circle clip-path="url(#clipPath2)" fill="none" r="2.84" cx="1059.167" cy="522.84" stroke="white" stroke-width="1"/>
      <circle clip-path="url(#clipPath2)" fill="none" r="2.84" cx="955.167" cy="560" stroke="white" stroke-width="1"/>
      <circle clip-path="url(#clipPath2)" fill="none" r="2.84" cx="889.847" cy="693" stroke="white" stroke-width="1"/>
      <circle clip-path="url(#clipPath2)" fill="none" r="2.84" cx="785.847" cy="730.16" stroke="white" stroke-width="1"/>
      <circle stroke-linecap="square" clip-path="url(#clipPath2)" r="8" cx="914.327" cy="542.431" stroke="none" stroke-width="1" stroke-miterlimit="10"/>
      <circle fill="none" stroke-width="1" r="8" clip-path="url(#clipPath2)" cx="914.327" cy="542.431"/>
      <circle stroke-linecap="square" clip-path="url(#clipPath2)" r="8" cx="1021.3357" cy="663.431" stroke="none" stroke-width="1" stroke-miterlimit="10"/>
      <circle fill="none" stroke-width="1" r="8" clip-path="url(#clipPath2)" cx="1021.3357" cy="663.431"/>
      <circle stroke-linecap="square" clip-path="url(#clipPath2)" r="8" cx="826.687" cy="591.431" stroke="none" stroke-width="1" stroke-miterlimit="10"/>
      <circle fill="none" r="8" clip-path="url(#clipPath2)" cx="826.687" cy="591.431"/>
      <circle stroke-linecap="square" clip-path="url(#clipPath2)" r="8" cx="826.687" cy="704.16" stroke="none" stroke-width="1" stroke-miterlimit="10"/>
      <circle fill="none" stroke-width="1" r="8" clip-path="url(#clipPath2)" cx="826.687" cy="704.16"/>
      <circle stroke-linecap="square" clip-path="url(#clipPath2)" r="8" cx="985.6714" cy="703" stroke="none" stroke-width="1" stroke-miterlimit="10"/>
      <circle fill="none" stroke-width="1" r="8" clip-path="url(#clipPath2)" cx="985.6714" cy="703"/>
      <circle stroke-linecap="square" clip-path="url(#clipPath2)" r="8" cx="917.3357" cy="635.8621" stroke="none" stroke-width="1" stroke-miterlimit="10"/>
      <circle fill="none" stroke-width="1" r="8" clip-path="url(#clipPath2)" cx="917.3357" cy="635.8621"/>
      <path fill="none" stroke-dasharray="6,2" d="M575.9985 248.5415 L473.1116 284.9951" stroke-width="1" clip-path="url(#clipPath2)"/>
      <path fill="none" stroke-dasharray="6,2" d="M751 421 L648 460" stroke-width="1" clip-path="url(#clipPath2)"/>
      <path fill="none" stroke-dasharray="6,2" d="M745.4856 250.7956 L646.8344 286.0444" stroke-width="1" clip-path="url(#clipPath2)"/>
      <text x="467.8576" font-size="24px" y="488.2129" clip-path="url(#clipPath2)" font-family="'Arial'" stroke="none" stroke-width="1" xml:space="preserve">a) Loose coupling, high cohesion (good)</text>
      <path fill="none" stroke-dasharray="6,2" d="M576.1656 420.9556 L477.5144 456.2044" stroke-width="1" clip-path="url(#clipPath2)"/>
      <path fill="none" d="M617.6355 281.484 L692.3574 348.1071" stroke-width="3" clip-path="url(#clipPath2)"/>
      <path fill="none" d="M605.9817 281.791 L536.3399 350.8" stroke-width="3" clip-path="url(#clipPath2)"/>
      <path fill="none" d="M530.6573 401.16 L530.6573 364.431" stroke-width="3" clip-path="url(#clipPath2)"/>
      <path fill="none" d="M538.249 406.6367 L690.737 355.9543" stroke-width="3" clip-path="url(#clipPath2)"/>
      <path fill="none" d="M538.5995 355.4715 L636.2178 343.6779" stroke-width="3" clip-path="url(#clipPath2)"/>
      <path fill="none" d="M652.008 344.2704 L690.4807 351.879" stroke-width="3" clip-path="url(#clipPath2)"/>
      <path fill="none" d="M538.0704 412.1677 L598.9156 436.8544" stroke-width="3" clip-path="url(#clipPath2)"/>
      <path fill="none" d="M611.4037 284.1558 L606.5892 431.8663" stroke-width="3" clip-path="url(#clipPath2)"/>
      <path fill="none" d="M609.2318 432.4074 L641.2569 350.1731" stroke-width="3" clip-path="url(#clipPath2)"/>
      <path fill="none" stroke-dasharray="6,2" d="M892.3412 245.5415 L789.4543 281.9951" stroke-width="1" clip-path="url(#clipPath2)"/>
      <path fill="none" stroke-dasharray="6,2" d="M1067.3428 418 L964.3427 457" stroke-width="1" clip-path="url(#clipPath2)"/>
      <path fill="none" stroke-dasharray="6,2" d="M1061.8284 247.7956 L963.1771 283.0444" stroke-width="1" clip-path="url(#clipPath2)"/>
      <path fill="none" stroke-dasharray="6,2" d="M892.5083 417.9556 L793.8571 453.2044" stroke-width="1" clip-path="url(#clipPath2)"/>
      <path fill="none" d="M987.5318 269.7512 L1024.1466 379.8399" stroke-width="3" clip-path="url(#clipPath2)"/>
      <path fill="none" d="M978.3343 266.573 L853.6727 349.018" stroke-width="3" clip-path="url(#clipPath2)"/>
      <path fill="none" d="M706.3286 353.431 L839 353.431" stroke-width="3" clip-path="url(#clipPath2)" stroke="green"/>
      <path fill="none" d="M854.8605 354.9185 L1018.8109 385.9436" stroke-width="3" clip-path="url(#clipPath2)"/>
      <path fill="none" d="M833.5948 420.316 L845.4279 361.2751" stroke-width="3" clip-path="url(#clipPath2)"/>
      <path fill="none" d="M839.8531 426.5215 L1018.8409 389.0695" stroke-width="3" clip-path="url(#clipPath2)"/>
      <path fill="none" d="M854.2247 356.8668 L973.4467 413.5642" stroke-width="3" clip-path="url(#clipPath2)"/>
      <path fill="none" d="M987.4009 412.6742 L1019.9418 391.7568" stroke-width="3" clip-path="url(#clipPath2)"/>
      <path fill="none" d="M839.9861 428.9245 L914.7079 436.0976" stroke-width="3" clip-path="url(#clipPath2)"/>
      <path fill="none" d="M982.3185 269.6947 L925.3599 429.3274" stroke-width="3" clip-path="url(#clipPath2)"/>
      <path fill="none" d="M852.3746 359.3568 L917.2968 430.9364" stroke-width="3" clip-path="url(#clipPath2)"/>
      <path fill="none" d="M930.2399 434.2702 L973.1028 419.5918" stroke-width="3" clip-path="url(#clipPath2)"/>
      <path fill="none" stroke-dasharray="6,2" d="M570.6628 524.5415 L467.7759 560.9952" stroke-width="1" clip-path="url(#clipPath2)"/>
      <path fill="none" stroke-dasharray="6,2" d="M745.6643 697 L642.6643 736" stroke-width="1" clip-path="url(#clipPath2)"/>
      <path fill="none" stroke-dasharray="6,2" d="M740.1499 526.7956 L641.4987 562.0444" stroke-width="1" clip-path="url(#clipPath2)"/>
      <text x="468.8576" font-size="24px" y="774.2129" clip-path="url(#clipPath2)" font-family="'Arial'" stroke="none" stroke-width="1" xml:space="preserve">b) Tight coupling, low cohesion (bad)</text>
      <path fill="none" stroke-dasharray="6,2" d="M570.8299 696.9556 L472.1787 732.2044" stroke-width="1" clip-path="url(#clipPath2)"/>
      <path fill="none" d="M654.4525 546.2681 L704.5405 613.3096" stroke-width="3" clip-path="url(#clipPath2)"/>
      <path fill="none" d="M642.0956 542.4505 L532.8903 579.8397" stroke-width="3" clip-path="url(#clipPath2)"/>
      <path fill="none" d="M509.1506 661.7858 L701.4996 621.3636" stroke-width="3" clip-path="url(#clipPath2)"/>
      <path fill="none" d="M668.3528 670.4928 L704.3045 625.944" stroke-width="3" clip-path="url(#clipPath2)"/>
      <path fill="none" d="M585.9258 712.5048 L656.0672 680.0757" stroke-width="3" clip-path="url(#clipPath2)"/>
      <path fill="none" stroke-dasharray="6,2" d="M887.0055 521.5415 L784.1187 557.9952" stroke-width="1" clip-path="url(#clipPath2)"/>
      <path fill="none" stroke-dasharray="6,2" d="M1062.0071 694 L959.007 733" stroke-width="1" clip-path="url(#clipPath2)"/>
      <path fill="none" stroke-dasharray="6,2" d="M1056.4927 523.7956 L957.8414 559.0444" stroke-width="1" clip-path="url(#clipPath2)"/>
      <path fill="none" stroke-dasharray="6,2" d="M887.1726 693.9556 L788.5214 729.2044" stroke-width="1" clip-path="url(#clipPath2)"/>
      <path fill="none" d="M533.2797 581.6127 L906.369 543.2493" stroke-width="3" clip-path="url(#clipPath2)" stroke="red"/>
      <path fill="none" d="M919.6268 548.4238 L1016.0359 657.4384" stroke-width="3" clip-path="url(#clipPath2)"/>
      <path fill="none" d="M586.6088 714.9211 L1013.3912 664.372" stroke-width="3" clip-path="url(#clipPath2)" stroke="red"/>
      <path fill="none" d="M509.3216 663.431 L1013.3357 663.431" stroke-width="3" clip-path="url(#clipPath2)" stroke="red"/>
      <path fill="none" d="M907.3444 546.3351 L833.6697 587.527" stroke-width="3" clip-path="url(#clipPath2)"/>
      <path fill="none" d="M717.1059 617.8438 L818.9098 593.3056" stroke-width="3" clip-path="url(#clipPath2)" stroke="red"/>
      <path fill="none" d="M826.687 696.16 L826.687 599.431" stroke-width="3" clip-path="url(#clipPath2)"/>
      <path fill="none" d="M656.8609 543.3533 L978.4748 699.5059" stroke-width="3" clip-path="url(#clipPath2)" stroke="red"/>
      <path fill="none" d="M833.0765 699.3459 L910.9462 640.6761" stroke-width="3" clip-path="url(#clipPath2)"/>
      <path fill="none" d="M923.0423 641.4687 L979.9647 697.3934" stroke-width="3" clip-path="url(#clipPath2)"/>
    </g>
  </g>
</svg>
