<?xml version="1.0" encoding="UTF-8" standalone="no"?>
<svg
   xmlns:svg="http://www.w3.org/2000/svg"
   xmlns="http://www.w3.org/2000/svg"
   version="1.0"
   width="108"
   height="108"
   id="Unicode">
  <path
     d="m 1.08434,87.43016 0,14.52622 c 0,-10e-6 0.19553,2.16571 1.82163,3.79181 1.62611,1.6261 4.07329,2.21255 4.07329,2.21255 l 2.15,0 c 0,0 2.22379,-0.2536 4.26092,-2.29073 2.00559,-2.00558 1.76691,-3.9951 1.76691,-3.9951 l 0,-4.82383 6.78618,11.10966 4.60494,0 0,-14.15875 -4.73784,0 0,4.99583 -6.70018,-11.36766 -4.58147,0 0,13.10329 c 0,2.85327 -2.48372,2.82237 -2.46273,2.82237 0.0237,0 -2.46274,-0.0267 -2.46274,-2.82237 l 0,-13.10329 -4.51891,0 z m 20.72603,0 0,4.95673 4.73784,0 0,-4.95673 -4.73784,0 z"
     id="UNI" />
  <path
     d="m 37.91715,87.48946 c -5.52,0 -9.99999,4.47999 -10,10 0,5.52 4.48001,9.99999 10,10 4.64676,0 8.56677,-3.17146 9.6875,-7.46875 l -4.25,0 c -0.95308,2.04022 -3.03829,3.46875 -5.4375,3.46875 -3.30214,1e-5 -5.96875,-2.69786 -5.96875,-6 -10e-6,-3.30215 2.66661,-5.96875 5.96875,-5.96875 2.393,0 4.48112,1.4058 5.4375,3.4375 l 4.25,0 C 46.47922,90.66783 42.559,87.48945 37.91715,87.48946 z"
     id="C" />
  <path
     d="m 58.37955,87.48946 c -5.52,0 -10.00001,4.47999 -10,10 0,5.52 4.48001,9.99999 10,10 5.52,0 10.00001,-4.48001 10,-10 0,-5.52 -4.47999,-10.00001 -10,-10 z m 0,4.03125 c 3.30215,0 5.96875,2.66661 5.96875,5.96875 0,3.30213 -2.66661,6 -5.96875,6 -3.30214,1e-5 -6,-2.69786 -6,-6 -1e-5,-3.30215 2.69786,-5.96875 6,-5.96875 z"
     id="O" />
  <path
     d="m 76.32598,91.52071 c 3.30215,0 5.96875,2.66661 5.96875,5.96875 0,3.30213 -2.66661,6 -5.96875,6 l -2.37545,0.0273 0,-11.99607 2.37545,0 z m 0,15.87885 c 5.52,0 10.00001,-4.39011 10,-9.9101 0,-5.52 -4.47999,-10.00001 -10,-10 l -6.73174,0 0,19.9101 6.73174,0 z"
     id="D" />
  <path
     d="m 97.2609,87.48946 c -5.52,0 -10.00001,4.47999 -10,10 0,5.52 4.48001,9.99999 10,10 4.87514,0 8.92952,-3.50594 9.8125,-8.125 l -4.15625,0 c -0.78281,2.39096 -3.00766,4.125 -5.65625,4.125 -1.79639,1e-5 -3.39834,-0.80273 -4.5,-2.0625 l 10.25,-3.875 0.0625,-0.0625 4.03125,-1.5625 c -0.75463,-4.77426 -4.85839,-8.43751 -9.84375,-8.4375 z m 0,4.03125 c 1.61811,0 3.08233,0.64589 4.15625,1.6875 l -10.125,3.78125 c 0.25146,-3.0717 2.83182,-5.46875 5.96875,-5.46875 z"
     id="E" />
  <path
     d="m 0.33565,0.03926 107.3287,0 0,82.0749 -107.3287,0 0,-82.0749 z"
     id="path3228"
     style="fill:#de0029" />
  <path
     d="m 3.10465,0.05196 0,58.0625 c -1e-5,-1e-5 0.78157,8.65657 7.28125,15.15625 6.49969,6.49968 16.28125,8.84375 16.28125,8.84375 l 8.59375,0 c 0,1e-5 8.8887,-1.0137 17.03125,-9.15625 8.01649,-8.01649 7.0625,-15.96875 7.0625,-15.96875 l 0,-19.28125 27.125,44.40625 18.40625,0 0,-56.59375 -18.9375,0 0,19.96875 -26.78125,-45.4375 -18.3125,0 0,52.375 c -10e-6,11.40476 -9.92763,11.28125 -9.84375,11.28125 0.0947,-1e-5 -9.84375,-0.10673 -9.84375,-11.28125 l 0,-52.375 -18.0625,0 z m 82.84375,0 0,19.8125 18.9375,0 0,-19.8125 -18.9375,0 z"
     id="rect2455"
     style="fill:#ffffff" />
</svg>